<?xml version="1.0" encoding="UTF-8"?>
<svg width="24px" height="24px" viewBox="0 0 24 24" version="1.1" xmlns="http://www.w3.org/2000/svg" xmlns:xlink="http://www.w3.org/1999/xlink">
    <!-- Generator: Sketch 53.2 (72643) - https://sketchapp.com -->
    <title>ic_charity</title>
    <desc>Created with Sketch.</desc>
    <g id="panel-assets" stroke="none" stroke-width="1" fill="none" fill-rule="evenodd">
        <g id="Group-4" transform="translate(3.000000, 3.000000)">
            <rect id="Rectangle-Copy-8" stroke="#FFFFFF" x="0.5" y="0.5" width="17" height="17" rx="8.5"></rect>
            <rect id="Rectangle-Copy-13" fill="#FFFFFF" x="2" y="2" width="14" height="14" rx="7"></rect>
            <path d="M10.2858465,11.2472786 C10.2858465,10.9152457 10.1774492,10.6398578 9.96065119,10.4211067 C9.74385323,10.2023556 9.38155217,10.0031389 8.87373713,9.82345045 C8.04951426,9.54219905 7.43135638,9.20333525 7.01924494,8.80684889 C6.60713351,8.41036253 6.40108088,7.87032887 6.40108088,7.1867317 C6.40108088,6.53829096 6.59834453,6.00509317 6.99287776,5.58712233 C7.38741098,5.16915149 7.92256188,4.92110709 8.59834651,4.8429817 L8.59834651,3.56563795 L9.53584651,3.56563795 L9.53584651,4.85470045 C10.2038186,4.95626346 10.7262743,5.24239341 11.1032293,5.71309889 C11.4801843,6.18380437 11.668659,6.80782157 11.668659,7.5851692 L10.2506903,7.5851692 C10.2506903,7.09688551 10.1413164,6.71017063 9.92256526,6.42501295 C9.70381416,6.13985528 9.40303592,5.99727858 9.02022151,5.99727858 C8.62178201,5.99727858 8.32295688,6.10372283 8.12373713,6.31661452 C7.92451739,6.52950621 7.82490901,6.81563616 7.82490901,7.17501295 C7.82490901,7.51095213 7.92940015,7.7843869 8.13838557,7.99532545 C8.34737099,8.20626401 8.72334379,8.40743387 9.26631526,8.59884108 C10.0905381,8.89571756 10.7038132,9.23946413 11.106159,9.63009108 C11.5085048,10.020718 11.7096746,10.5558689 11.7096746,11.2355598 C11.7096746,11.9113445 11.5045986,12.4504016 11.0944403,12.8527473 C10.684282,13.2550931 10.1237407,13.493372 9.41279963,13.5675911 L9.41279963,14.7101692 L8.48115901,14.7101692 L8.48115901,13.5734505 C7.78193676,13.4992313 7.2067472,13.2463042 6.75557307,12.8146614 C6.30439894,12.3830186 6.08662768,11.7472828 6.10225276,10.9074348 L6.11397151,10.878138 L7.49678401,10.878138 C7.49678401,11.4328282 7.63252484,11.8293086 7.90401057,12.0675911 C8.1754963,12.3058735 8.5143601,12.425013 8.92061213,12.425013 C9.35420805,12.425013 9.69014219,12.3195453 9.92842463,12.1086067 C10.1667071,11.8976681 10.2858465,11.6105616 10.2858465,11.2472786 Z" id="$" fill="#C43A6D" fill-rule="nonzero"></path>
        </g>
    </g>
</svg>