<?xml version="1.0" encoding="UTF-8"?>
<svg width="24px" height="24px" viewBox="0 0 24 24" version="1.1" xmlns="http://www.w3.org/2000/svg" xmlns:xlink="http://www.w3.org/1999/xlink">
    <!-- Generator: Sketch 53.2 (72643) - https://sketchapp.com -->
    <title>ic_dashboard_active</title>
    <desc>Created with Sketch.</desc>
    <g id="panel-assets" stroke="none" stroke-width="1" fill="none" fill-rule="evenodd">
        <path d="M20.3400117,8.37661011 C20.3321719,8.35792706 20.3221875,8.34081767 20.3105859,8.32514802 C19.861043,7.30005791 19.2079102,6.37430941 18.3999141,5.59417486 C18.3885234,5.57803645 18.3752695,5.56256769 18.3600117,5.54803643 C18.3447539,5.53350516 18.3285117,5.52088239 18.3115664,5.51003416 C16.6839727,3.98107089 14.4526406,3.03375987 12,3.03375987 C10.8251484,3.03375987 9.70116797,3.25139397 8.66982422,3.64584741 C8.64960938,3.64946348 8.62953516,3.6548876 8.61002344,3.66232064 C8.59044141,3.66978716 8.57244141,3.6792961 8.55598828,3.69034521 C7.47964453,4.11848172 6.50760938,4.74051346 5.68846875,5.51003416 C5.67152344,5.52088239 5.65528125,5.53350516 5.64002344,5.54803643 C5.62476563,5.56256769 5.61147656,5.57803645 5.60012109,5.59417486 C3.99467578,7.14426538 3,9.2693452 3,11.6051953 C3,13.5480651 3.65998828,15.4051871 4.95001172,16.9194852 C5.01002344,17.0051996 5.10002344,17.0337599 5.19002344,17.0337599 L18.8100117,17.0337599 C18.9000117,17.0337599 18.9900117,17.0051996 19.0500234,16.9194852 C20.3400117,15.4052206 21,13.5480651 21,11.6051953 C21,10.4862881 20.7714844,9.41582969 20.3573086,8.43359676 C20.3535117,8.41434451 20.3478164,8.3952262 20.3400117,8.37661011 Z" id="Shape-Copy" fill="#DB444C"></path>
        <path d="M12,5 L12,5.91174316 M17.8616001,7.82116849 L17.1530426,8.39494705 M19.311705,14.1700148 L18.4233298,13.9649172 M4.68829497,14.1700148 L5.57667021,13.9649172 M6.13839988,7.82116849 L6.8469574,8.39494705" id="Line-Copy" stroke="#FFFFFF" stroke-linecap="round" stroke-linejoin="round" fill-rule="nonzero"></path>
        <path d="M14.215169,10.0611051 L13.0169434,10.784695 C12.592562,11.0341956 12.1432274,11.258755 11.7188754,11.458373 C11.5940504,11.5082849 11.4442722,11.583138 11.294494,11.6579911 C10.7702703,11.9324623 10.4956672,12.5063167 10.6204921,13.0802003 C10.7203345,13.529319 11.09478,13.9035846 11.5441146,14.003379 C11.643957,14.0283203 11.7438286,14.0283203 11.843671,14.0283203 C12.3179589,14.0283203 12.7423402,13.7538491 12.9670075,13.329701 C13.0169434,13.204936 13.0918325,13.0552298 13.1667216,12.9055236 C13.3913889,12.4813461 13.5911029,12.0322274 13.8407235,11.6080793 L14.5646612,10.4104294 C14.614597,10.310635 14.5896145,10.2108113 14.5147254,10.1110169 C14.4398363,10.0111933 14.3150114,10.0111933 14.215169,10.0611051 L14.215169,10.0611051 Z" id="Shape-Copy-2" fill="#FFFFFF"></path>
        <g id="ic_dashboard-copy" transform="translate(3.000000, 3.000000)">
            <path d="M17.3400117,5.37661011 C17.3321719,5.35792706 17.3221875,5.34081767 17.3105859,5.32514802 C16.861043,4.30005791 16.2079102,3.37430941 15.3999141,2.59417486 C15.3885234,2.57803645 15.3752695,2.56256769 15.3600117,2.54803643 C15.3447539,2.53350516 15.3285117,2.52088239 15.3115664,2.51003416 C13.6839727,0.981070891 11.4526406,0.0337598684 9,0.0337598684 C7.82514844,0.0337598684 6.70116797,0.25139397 5.66982422,0.64584741 C5.64960938,0.649463484 5.62953516,0.654887596 5.61002344,0.662320637 C5.59044141,0.669787161 5.57244141,0.679296097 5.55598828,0.690345213 C4.47964453,1.11848172 3.50760938,1.74051346 2.68846875,2.51003416 C2.67152344,2.52088239 2.65528125,2.53350516 2.64002344,2.54803643 C2.62476563,2.56256769 2.61147656,2.57803645 2.60012109,2.59417486 C0.994675781,4.14426538 0,6.2693452 0,8.60519527 C0,10.5480651 0.659988281,12.4051871 1.95001172,13.9194852 C2.01002344,14.0051996 2.10002344,14.0337599 2.19002344,14.0337599 L15.8100117,14.0337599 C15.9000117,14.0337599 15.9900117,14.0051996 16.0500234,13.9194852 C17.3400117,12.4052206 18,10.5480651 18,8.60519527 C18,7.48628813 17.7714844,6.41582969 17.3573086,5.43359676 C17.3535117,5.41434451 17.3478164,5.3952262 17.3400117,5.37661011 Z" id="Shape" fill="#333333"></path>
            <path d="M9,2 L9,2.91174316 M14.8616001,4.82116849 L14.1530426,5.39494705 M16.311705,11.1700148 L15.4233298,10.9649172 M1.68829497,11.1700148 L2.57667021,10.9649172 M3.13839988,4.82116849 L3.8469574,5.39494705" id="Line" stroke="#FFFFFF" stroke-linecap="round" stroke-linejoin="round" fill-rule="nonzero"></path>
            <path d="M11.215169,7.06110511 L10.0169434,7.78469498 C9.59256203,8.03419563 9.14322743,8.25875498 8.71887536,8.45837304 C8.59405044,8.50828486 8.44427224,8.58313798 8.29449403,8.6579911 C7.77027033,8.93246227 7.49566721,9.50631668 7.62049213,10.0802003 C7.72033451,10.529319 8.09478001,10.9035846 8.54411462,11.003379 C8.643957,11.0283203 8.74382864,11.0283203 8.84367102,11.0283203 C9.31795891,11.0283203 9.74234024,10.7538491 9.96700754,10.329701 C10.0169434,10.204936 10.0918325,10.0552298 10.1667216,9.90552356 C10.3913889,9.48134615 10.5911029,9.03222744 10.8407235,8.60807927 L11.5646612,7.4104294 C11.614597,7.31063499 11.5896145,7.21081134 11.5147254,7.11101693 C11.4398363,7.01119328 11.3150114,7.01119328 11.215169,7.06110511 L11.215169,7.06110511 Z" id="Shape" fill="#FFFFFF"></path>
        </g>
    </g>
</svg>