<?xml version="1.0" encoding="UTF-8"?>
<svg width="24px" height="25px" viewBox="0 0 24 25" version="1.1" xmlns="http://www.w3.org/2000/svg" xmlns:xlink="http://www.w3.org/1999/xlink">
    <!-- Generator: Sketch 53.2 (72643) - https://sketchapp.com -->
    <title>ic_faq</title>
    <desc>Created with Sketch.</desc>
    <g id="panel-assets" stroke="none" stroke-width="1" fill="none" fill-rule="evenodd">
        <g id="question" transform="translate(3.000000, 4.000000)" fill="#FFFFFF" fill-rule="nonzero">
            <path d="M17.9152982,14.594296 C17.9145614,14.5918924 17.9138246,14.5895247 17.9130526,14.5871211 L17.1994386,12.3702601 L17.1994386,6.94156054 C17.1994386,6.05140807 16.4911228,5.32721076 15.6204912,5.32721076 L11.0112982,5.32721076 L11.0112982,7.96864574 C11.0112982,9.45223318 9.83077193,10.6592287 8.3797193,10.6592287 L8.00645614,10.6592287 L8.00645614,13.2554619 C8.00645614,14.1456143 8.71477193,14.8698117 9.58540351,14.8698117 L14.9420702,14.8698117 L16.320807,15.8078565 C16.5020351,15.9332735 16.7070175,15.9957668 16.9115439,15.9957668 C17.1308421,15.9957668 17.3497193,15.9239462 17.5382456,15.7808789 C17.9034386,15.5038206 18.0514386,15.0380628 17.9152982,14.594296 L17.9152982,14.594296 Z M14.3327018,12.682583 C14.0607719,12.7875516 13.7570877,12.6471749 13.6544561,12.3691121 L13.4252632,11.7481973 L11.8230877,11.7481973 L11.5912281,12.3706547 C11.5112632,12.5853274 11.3113684,12.7173812 11.0992632,12.7173812 C11.0369825,12.7173812 10.9736842,12.706009 10.9120351,12.682009 C10.640386,12.5762152 10.5040702,12.2653274 10.6075088,11.9875874 L12.0568772,8.09671749 C12.058386,8.0926278 12.0599649,8.08853812 12.0615789,8.0844843 C12.1562807,7.8478565 12.3790175,7.69478027 12.6290877,7.69452915 C12.8805263,7.69320179 13.1022105,7.84688789 13.1973333,8.0833722 C13.1992982,8.08825112 13.2011579,8.09313004 13.2029825,8.09808072 L14.639193,11.9890942 C14.7418947,12.267157 14.6046316,12.5776502 14.3327018,12.682583 L14.3327018,12.682583 Z" id="Shape"></path>
            <polygon id="Path" points="12.224 10.6719641 13.028 10.6719641 12.6278246 9.58783857"></polygon>
            <path d="M8.3797193,0.00452017937 L2.34463158,0.00452017937 C1.474,0.00452017937 0.765684211,0.728717489 0.765684211,1.61886996 L0.765684211,7.08358744 L0.0520701754,9.3006278 C0.0512982456,9.30303139 0.0505614035,9.30547085 0.0498245614,9.30787444 C-0.0862105263,9.75149776 0.0618596491,10.217148 0.427052632,10.4941704 C0.615578947,10.6371659 0.834385965,10.7089865 1.05364912,10.7089865 C1.25814035,10.7089865 1.46301754,10.646565 1.64414035,10.5211839 L3.02301754,9.58303139 L8.37968421,9.58303139 C9.25031579,9.58303139 9.95863158,8.85883408 9.95863158,7.96868161 L9.95863158,1.61890583 C9.95866667,0.728717489 9.25035088,0.00452017937 8.3797193,0.00452017937 Z M7.55887719,7.18439462 C7.45610526,7.28943498 7.32140351,7.34199103 7.18673684,7.34199103 C7.05203509,7.34199103 6.91736842,7.28947085 6.81459649,7.18435874 L6.58414035,6.94869955 C6.1982807,7.20703139 5.73768421,7.35788341 5.24301754,7.35788341 C3.88922807,7.35788341 2.78782456,6.23178475 2.78782456,4.84764126 C2.78782456,3.46349776 3.88922807,2.3373991 5.24301754,2.3373991 C6.59680702,2.3373991 7.69821053,3.46349776 7.69821053,4.84764126 C7.69821053,5.33729148 7.55989474,5.79426009 7.32182456,6.18087892 L7.55894737,6.42331839 C7.76442105,6.6335426 7.76442105,6.97424215 7.55887719,7.18439462 L7.55887719,7.18439462 Z" id="Shape"></path>
            <path d="M5.24298246,3.41370404 C4.46961404,3.41370404 3.84042105,4.05700448 3.84042105,4.847713 C3.84042105,5.63842152 4.46961404,6.28172197 5.24298246,6.28172197 C5.44512281,6.28172197 5.63726316,6.23741704 5.81105263,6.15834978 L5.58045614,5.92258296 C5.37491228,5.71243049 5.37491228,5.37173094 5.58045614,5.16157848 C5.786,4.95142601 6.11922807,4.95142601 6.32477193,5.16157848 L6.54308772,5.38478924 C6.60894737,5.21879821 6.64554386,5.03756054 6.64554386,4.847713 C6.64554386,4.05696861 6.01635088,3.41370404 5.24298246,3.41370404 L5.24298246,3.41370404 Z" id="Path"></path>
        </g>
    </g>
</svg>