<?xml version="1.0" encoding="UTF-8"?>
<svg width="189px" height="48px" viewBox="0 0 189 48" version="1.1" xmlns="http://www.w3.org/2000/svg" xmlns:xlink="http://www.w3.org/1999/xlink">
    <!-- Generator: Sketch 53.2 (72643) - https://sketchapp.com -->
    <title>ic_logo</title>
    <desc>Created with Sketch.</desc>
    <g id="panel-assets" stroke="none" stroke-width="1" fill="none" fill-rule="evenodd">
        <g id="Group-86" fill="#FFFFFF">
            <path d="M60.1488033,24.6451886 C60.1488033,26.2970743 60.488316,27.5951314 61.1666542,28.5386743 C61.8449924,29.4822171 62.7954905,29.9533029 64.0167742,29.9533029 C65.6002505,29.9533029 66.763116,29.2360457 67.5053705,27.80016 L67.5053705,21.1103314 C66.7356251,19.7114743 65.5823815,19.01136 64.0442651,19.01136 C62.8222942,19.01136 61.8676724,19.4858743 61.1797124,20.4335314 C60.4924396,21.3811886 60.1488033,22.7855314 60.1488033,24.6451886 M57.6244505,24.3606171 C57.6244505,22.0765029 58.1536505,20.25936 59.2120505,18.9098743 C60.2711378,17.5603886 61.6731742,16.8856457 63.4195342,16.8856457 C65.2112542,16.8856457 66.6091669,17.5171886 67.6139596,18.7816457 L67.7356069,17.1565029 L70.0297233,17.1565029 L70.0297233,31.4570743 C70.0297233,33.3523886 69.4661596,34.84656 68.3397196,35.9389029 C67.2132796,37.0312457 65.6999051,37.57776 63.799596,37.57776 C62.741196,37.57776 61.7047887,37.3514743 60.6917487,36.90096 C59.6780215,36.4483886 58.9041524,35.83056 58.3708287,35.0454171 L59.6738978,33.5423314 C60.7501669,34.8691886 62.0669815,35.5322743 63.6236542,35.5322743 C64.8449378,35.5322743 65.7968105,35.1894171 66.4799596,34.5037029 C67.163796,33.8173029 67.5053705,32.8518171 67.5053705,31.6058743 L67.5053705,30.3462171 C66.5005778,31.5023314 65.130156,32.0797029 63.3927305,32.0797029 C61.6731742,32.0797029 60.2821342,31.3891886 59.2189233,30.0074743 C58.1557124,28.6264457 57.6244505,26.74416 57.6244505,24.3606171" id="Fill-69"></path>
            <path d="M74.0337055,31.8089143 L76.545,31.8089143 L76.545,17.1565714 L74.0337055,17.1565714 L74.0337055,31.8089143 Z M73.8302727,13.2699429 C73.8302727,12.8633143 73.9539818,12.5204571 74.2034618,12.2406857 C74.4522545,11.9609143 74.8206327,11.8210286 75.3092836,11.8210286 C75.7979345,11.8210286 76.1690618,11.9609143 76.4226655,12.2406857 C76.6755818,12.5204571 76.8027273,12.8633143 76.8027273,13.2699429 C76.8027273,13.6758857 76.6755818,14.0146286 76.4226655,14.2854857 C76.1690618,14.5563429 75.7979345,14.6921143 75.3092836,14.6921143 C74.8206327,14.6921143 74.4522545,14.5563429 74.2034618,14.2854857 C73.9539818,14.0146286 73.8302727,13.6758857 73.8302727,13.2699429 L73.8302727,13.2699429 Z" id="Fill-71"></path>
            <polygon id="Fill-73" points="85.4073818 28.4099657 89.0444291 17.1560229 91.6100182 17.1560229 86.3441345 31.8090514 84.43008 31.8090514 79.1099018 17.1560229 81.6748036 17.1560229"></polygon>
            <path d="M99.631728,18.9438857 C98.6180007,18.9438857 97.7678444,19.3121143 97.0798844,20.0472 C96.3926116,20.7836571 95.9665025,21.8149714 95.8043062,23.1418286 L103.160873,23.1418286 L103.160873,22.9525714 C103.088023,21.6792 102.744386,20.6931429 102.129277,19.9937143 C101.513481,19.2936 100.681193,18.9438857 99.631728,18.9438857 M99.9437498,32.0794286 C97.953408,32.0794286 96.3335062,31.428 95.0847316,30.1230857 C93.8359571,28.8181714 93.2119135,27.0737143 93.2119135,24.8890286 L93.2119135,24.4282286 C93.2119135,22.9752 93.4895716,21.6771429 94.0469498,20.5354286 C94.6029535,19.3930286 95.3809462,18.4995429 96.3816153,17.8536 C97.3809098,17.2083429 98.4640516,16.8853714 99.631728,16.8853714 C101.540972,16.8853714 103.024793,17.5134857 104.083881,18.7683429 C105.142281,20.0232 105.671481,21.8197714 105.671481,24.1573714 L105.671481,25.2003429 L95.723208,25.2003429 C95.7589462,26.6451429 96.1816189,27.8115429 96.9919135,28.7009143 C97.8015207,29.5902857 98.830368,30.0346286 100.079143,30.0346286 C100.966412,30.0346286 101.717601,29.8542857 102.33271,29.4929143 C102.947819,29.1322286 103.485953,28.6536 103.947801,28.0577143 L105.481793,29.2494857 C104.250888,31.1365714 102.404873,32.0794286 99.9437498,32.0794286" id="Fill-74"></path>
            <path d="M117.004814,24.3133714 C117.004814,22.9076571 116.817189,21.9051429 116.441251,21.3051429 C116.066,20.7065143 115.488691,20.4061714 114.710698,20.4061714 C113.679101,20.4061714 112.964338,20.7984 112.566407,21.5828571 L112.566407,27.3963429 C112.955403,28.1712 113.679101,28.5586286 114.738189,28.5586286 C115.814458,28.5586286 116.497607,28.0361143 116.787636,26.9904 C116.931963,26.4768 117.004814,25.5846857 117.004814,24.3133714 L117.004814,24.3133714 Z M121.59236,24.6041143 C121.59236,27.0061714 121.094774,28.8521143 120.098916,30.1433143 C119.103745,31.4345143 117.701709,32.0797714 115.891432,32.0797714 C114.398676,32.0797714 113.195261,31.488 112.281189,30.3058286 L112.091501,31.8089143 L107.992607,31.8089143 L107.992607,11.0084571 L112.566407,11.0084571 L112.566407,18.3346286 C113.416563,17.3684571 114.5162,16.8850286 115.864629,16.8850286 C117.692087,16.8850286 119.103745,17.5405714 120.098916,18.8489143 C121.094774,20.1579429 121.59236,21.9997714 121.59236,24.3744 L121.59236,24.6041143 Z" id="Fill-75"></path>
            <path d="M129.016348,28.8294857 C129.586785,28.8294857 130.058941,28.7074286 130.434192,28.464 C130.81013,28.2205714 131.079541,27.9449143 131.242425,27.6377143 L131.242425,25.2953143 L129.911865,25.2953143 C128.319454,25.2953143 127.523592,26.0084571 127.523592,27.4347429 C127.523592,27.8502857 127.663796,28.1862857 127.944203,28.4441143 C128.22461,28.7012571 128.581992,28.8294857 129.016348,28.8294857 L129.016348,28.8294857 Z M131.880214,31.8089143 C131.71733,31.5106286 131.572316,31.0731429 131.445857,30.4950857 C130.604636,31.5517714 129.428025,32.0797714 127.916712,32.0797714 C126.532545,32.0797714 125.355934,31.6621714 124.388254,30.8269714 C123.419887,29.9917714 122.936047,28.9426286 122.936047,27.6788571 C122.936047,26.0893714 123.523665,24.8886857 124.700276,24.0761143 C125.876887,23.2635429 127.586134,22.8576 129.830767,22.8576 L131.242425,22.8576 L131.242425,22.0820571 C131.242425,20.7298286 130.65893,20.0544 129.491254,20.0544 C128.405363,20.0544 127.862417,20.5892571 127.862417,21.6596571 L123.288617,21.6596571 C123.288617,20.2443429 123.89273,19.0950857 125.100268,18.2112 C126.308494,17.328 127.849359,16.8857143 129.722177,16.8857143 C131.594996,16.8857143 133.074694,17.3417143 134.160585,18.2537143 C135.245788,19.1650286 135.802479,20.4150857 135.82997,22.0045714 L135.82997,28.4907429 C135.847839,29.8361143 136.056083,30.8653714 136.454014,31.5785143 L136.454014,31.8089143 L131.880214,31.8089143 Z" id="Fill-76"></path>
            <path d="M144.570567,28.5589029 C145.213167,28.5589029 145.710753,28.3854171 146.063324,28.03776 C146.416582,27.6901029 146.5884,27.2046171 146.579465,26.5813029 L150.868735,26.5813029 C150.868735,28.1886171 150.291425,29.50656 149.138182,30.5358171 C147.984251,31.5650743 146.49768,32.07936 144.679156,32.07936 C142.5438,32.07936 140.860669,31.4114743 139.630451,30.0750171 C138.399545,28.7392457 137.784436,26.8885029 137.784436,24.5234743 L137.784436,24.3335314 C137.784436,22.8530743 138.057971,21.5461029 138.60504,20.4133029 C139.152796,19.2805029 139.942473,18.40896 140.974069,17.8000457 C142.005665,17.1904457 143.226949,16.8853029 144.638607,16.8853029 C146.547164,16.8853029 148.063287,17.4139886 149.185604,18.4699886 C150.307233,19.5259886 150.868735,20.9570743 150.868735,22.76256 L146.579465,22.76256 C146.579465,22.00416 146.393902,21.4219886 146.022775,21.0160457 C145.651647,20.6094171 145.154062,20.4064457 144.530018,20.4064457 C143.344473,20.4064457 142.652389,21.1600457 142.45308,22.6679314 C142.389851,23.14656 142.358236,23.8055314 142.358236,24.6448457 C142.358236,26.1163886 142.534865,27.1367314 142.887436,27.7051886 C143.240007,28.2743314 143.801509,28.5589029 144.570567,28.5589029" id="Fill-77"></path>
            <polygon id="Fill-78" points="158.699589 26.3514514 157.410265 27.6378514 157.410265 31.8083657 152.836465 31.8083657 152.836465 10.99488 157.410265 10.99488 157.410265 22.0451657 157.871425 21.4355657 161.319472 17.1560229 166.802534 17.1560229 161.658985 23.18208 167.142047 31.8083657 161.902967 31.8083657"></polygon>
            <path d="M176.08642,21.7299429 L172.082369,21.7299429 L172.082369,14.2412571 L176.072675,14.2412571 C177.447908,14.2501714 178.500122,14.5806857 179.228631,15.2314286 C179.956453,15.8828571 180.321395,16.8188571 180.321395,18.0401143 C180.321395,19.1612571 179.938584,20.0568 179.174337,20.7260571 C178.409402,21.3953143 177.379868,21.7299429 176.08642,21.7299429 L176.08642,21.7299429 Z M188.490319,25.3162286 L185.558413,25.3162286 L182.801075,29.844 L179.167464,23.3009143 C180.353009,22.8497143 181.278079,22.1681143 181.942671,21.2561143 C182.607951,20.3441143 182.940591,19.2744 182.940591,18.0462857 C182.940591,16.1146286 182.341289,14.6430857 181.141999,13.6316571 C179.942708,12.6209143 178.230711,12.1155429 176.004635,12.1155429 L169.463173,12.1155429 L169.463173,31.8318857 L172.082369,31.8318857 L172.082369,23.8563429 L176.724209,23.8563429 L181.26502,32.1576 L180.984613,32.5614857 L176.030064,39.9685714 L178.948911,39.9685714 L182.341977,34.4842286 L182.45194,34.3265143 L185.537795,39.9685714 L188.334308,39.9685714 L188.334308,39.8060571 L184.025795,32.0485714 L188.490319,25.3162286 Z" id="Fill-79"></path>
            <path d="M9.13626,9.64587429 C15.4371764,3.35924571 24.9923291,1.87124571 32.8457945,5.80038857 L30.4760782,7.32884571 C33.0966491,7.15261714 36.6257945,7.78553143 39.2532382,8.58027429 C37.7804127,6.26873143 36.22374,3.04587429 35.6911036,0.479931429 L34.7763436,3.40450286 C30.5571764,1.15536 25.6658564,0.22896 20.8838127,0.791931429 C15.5828782,1.41593143 10.7822782,3.74050286 7.00021636,7.51467429 C2.94462,11.5603886 0.510987273,16.9302171 0.146732727,22.6339886 C-0.214085455,28.2856457 1.47110727,33.8687314 4.89166364,38.3533029 C5.18925273,38.7427886 5.63941636,38.9478171 6.09507818,38.9478171 C6.41397273,38.9478171 6.73561636,38.8470171 7.00846364,38.6399314 C7.67305636,38.1359314 7.80157636,37.1903314 7.29574364,36.5279314 C1.11166364,28.41936 1.90271455,16.8630171 9.13626,9.64587429" id="Fill-80"></path>
            <path d="M42.8924847,10.5501943 C42.409332,9.87133714 41.4663938,9.71156571 40.7866811,10.1929371 C40.1055938,10.6749943 39.9454593,11.6157943 40.428612,12.2946514 C46.2381284,20.4608229 45.2938156,31.5357943 38.1846665,38.6288229 C34.2170411,42.5867657 28.9614665,44.6432229 23.6515975,44.6425371 C20.5272556,44.6425371 17.3836702,43.93008 14.4744447,42.4749943 L16.8448484,40.9458514 C14.2242775,41.12208 10.695132,40.4891657 8.06837564,39.6944229 C9.54051382,42.0059657 11.0971865,45.2281371 11.6298229,47.79408 L12.5445829,44.8701943 C15.9575793,46.6893943 19.8090556,47.6439086 23.6880229,47.6439086 C24.6048447,47.6439086 25.5230411,47.5904229 26.4371138,47.4827657 C31.7380484,46.8587657 36.5386484,44.5341943 40.3213975,40.7600229 C44.2800884,36.8103086 46.7040993,31.5728229 47.1473902,26.0123657 C47.5858702,20.5149943 46.0745575,15.0231086 42.8924847,10.5501943" id="Fill-81"></path>
            <path d="M31.4762662,28.6376229 C30.4721607,28.6376229 29.7409025,28.29408 29.285928,27.60768 L29.285928,21.2751086 C29.7505244,20.5976229 30.4900298,20.2602514 31.5030698,20.2602514 C33.5518298,20.3205943 34.1366989,22.27968 34.1538807,24.26688 C34.1181425,26.4707657 33.6562953,28.5176229 31.4762662,28.6376229 M37.1668844,18.7489371 C35.3820371,16.36128 31.3388116,15.7777371 29.285928,18.1297371 C28.9601607,15.7098514 30.5017135,14.5098514 32.2769389,14.43648 L32.2769389,10.9969371 C30.8006771,10.9647086 29.3326625,11.2431086 28.1691098,11.7765943 C25.7966444,12.8305371 24.5485571,14.8917943 24.5568044,17.48928 L24.5568044,31.9777371 L28.8254553,31.9777371 L28.9924625,30.67008 C30.4927789,32.6319086 33.9964953,32.6915657 35.9531607,31.30368 C38.0795825,29.8417371 38.8630735,27.2339657 38.8685716,24.55968 C38.902248,22.1939657 38.3304371,20.1697371 37.1668844,18.7489371" id="Fill-82"></path>
            <path d="M25.6757531,35.3986286 L26.5698949,35.3986286 C26.8482404,35.3986286 27.064044,35.328 27.2166185,35.1867429 C27.3691931,35.0454857 27.4454804,34.8507429 27.4454804,34.6025143 C27.4454804,34.3494857 27.3733167,34.1499429 27.2296767,34.0052571 C27.0853495,33.8598857 26.8640476,33.7878857 26.5664585,33.7878857 L25.6757531,33.7878857 L25.6757531,35.3986286 Z M26.5588985,36.2941714 L25.6757531,36.2941714 L25.6757531,38.2594286 L24.5671822,38.2594286 L24.5671822,32.8923429 L26.5664585,32.8923429 C27.2014985,32.8923429 27.6922113,33.0336 28.0372222,33.3161143 C28.3815458,33.5986286 28.5540513,33.9984 28.5540513,34.5140571 C28.5540513,34.8802286 28.4743276,35.1853714 28.3155676,35.4301714 C28.1568076,35.6742857 27.9162622,35.8697143 27.593244,36.0144 L28.7567967,38.208 L28.7567967,38.2594286 L27.5671276,38.2594286 L26.5588985,36.2941714 Z" id="Fill-83"></path>
            <polygon id="Fill-84" points="30.8484425 35.4613029 31.5212825 34.2709029 32.6628425 34.2709029 31.5247189 36.2245029 32.7102644 38.2597029 31.565268 38.2597029 30.8518789 37.0055314 30.1426135 38.2597029 28.9934935 38.2597029 30.1797262 36.2245029 29.0450389 34.2709029 30.1907225 34.2709029"></polygon>
            <path d="M15.8448665,20.30256 C16.848972,20.30256 17.5802302,20.6461029 18.0352047,21.3325029 L18.0352047,27.6650743 C17.5706084,28.34256 16.8311029,28.6799314 15.8180629,28.6799314 C13.7693029,28.6195886 13.1844338,26.6605029 13.167252,24.6733029 C13.2029902,22.4694171 13.6648375,20.42256 15.8448665,20.30256 M10.1542484,30.1912457 C11.9390956,32.5789029 15.9823211,33.1624457 18.0352047,30.8104457 C18.360972,33.2303314 16.8194193,34.4303314 15.0441938,34.5037029 L15.0441938,37.9432457 C16.5204556,37.9754743 17.9884702,37.6970743 19.1513356,37.1635886 C21.5244884,36.1096457 22.7725756,34.0483886 22.7636411,31.4509029 L22.7636411,16.9624457 L18.4956775,16.9624457 L18.3286702,18.2701029 C16.8283538,16.3082743 13.3246375,16.2486171 11.367972,17.6365029 C9.24155018,19.0984457 8.45805927,21.7062171 8.45256109,24.3805029 C8.41819745,26.7462171 8.99069564,28.7711314 10.1542484,30.1912457" id="Fill-85"></path>
        </g>
    </g>
</svg>