<?xml version="1.0" encoding="UTF-8"?>
<svg width="24px" height="24px" viewBox="0 0 24 24" version="1.1" xmlns="http://www.w3.org/2000/svg" xmlns:xlink="http://www.w3.org/1999/xlink">
    <!-- Generator: Sketch 53.2 (72643) - https://sketchapp.com -->
    <title>ic_notices_active</title>
    <desc>Created with Sketch.</desc>
    <g id="panel-assets" stroke="none" stroke-width="1" fill="none" fill-rule="evenodd">
        <g id="edit-copy" transform="translate(3.000000, 3.000000)" fill="#333333" fill-rule="nonzero">
            <path d="M10.6875,0.25 L10.5,0.25 L2.25,0.25 L2.0625,0.25 C0.9225,0.25 0,1.1725 0,2.3125 L0,11.6875 C0,12.8275 0.9225,13.75 2.0625,13.75 L7.5975,13.75 L7.7625,12.8275 C7.8375,12.4075 8.0325,12.0325 8.3325,11.725 L8.9325,11.125 L2.8125,11.125 C2.505,11.125 2.25,10.87 2.25,10.5625 C2.25,10.255 2.505,10 2.8125,10 L9.9375,10 C9.975,10 10.005,10 10.0425,10.015 L10.05,10.015 L12.75,7.315 L12.75,2.3125 C12.75,1.1725 11.8275,0.25 10.6875,0.25 Z M9.9375,7.6875 L2.8125,7.6875 C2.505,7.6875 2.25,7.4325 2.25,7.125 C2.25,6.8175 2.505,6.5625 2.8125,6.5625 L9.9375,6.5625 C10.245,6.5625 10.5,6.8175 10.5,7.125 C10.5,7.4325 10.245,7.6875 9.9375,7.6875 Z M9.9375,4.25 L2.8125,4.25 C2.505,4.25 2.25,3.995 2.25,3.6875 C2.25,3.38 2.505,3.125 2.8125,3.125 L9.9375,3.125 C10.245,3.125 10.5,3.38 10.5,3.6875 C10.5,3.995 10.245,4.25 9.9375,4.25 Z" id="Shape"></path>
            <path d="M9.39525,16 C9.2475,16 9.1035,15.9415 8.99775,15.835 C8.868,15.70525 8.8095,15.52075 8.84175,15.33925 L9.23925,13.0855 C9.25875,12.97225 9.31425,12.86725 9.39525,12.7855 L14.964,7.2175 C15.648,6.532 16.32,6.71725 16.6875,7.08475 L17.61525,8.0125 C18.1275,8.524 18.1275,9.3565 17.61525,9.86875 L12.0465,15.4375 C11.9655,15.51925 11.8605,15.574 11.7465,15.5935 L9.49275,15.991 C9.4605,15.997 9.4275,16 9.39525,16 L9.39525,16 Z" id="Shape"></path>
        </g>
    </g>
</svg>