<?xml version="1.0" encoding="UTF-8"?>
<svg width="30px" height="30px" viewBox="0 0 30 30" version="1.1" xmlns="http://www.w3.org/2000/svg" xmlns:xlink="http://www.w3.org/1999/xlink">
    <!-- Generator: Sketch 53.2 (72643) - https://sketchapp.com -->
    <title>ic_rotate</title>
    <desc>Created with Sketch.</desc>
    <g id="panel-assets" stroke="none" stroke-width="1" fill="none" fill-rule="evenodd">
        <g id="Group-27">
            <g id="Group-26" fill="#FFFFFF">
                <circle id="Oval" cx="15" cy="15" r="15"></circle>
            </g>
            <g id="flip_card_icon-01" transform="translate(3.000000, 3.000000)" fill="#22365C">
                <path d="M18.4510769,8.91692308 C18.248,8.49292308 17.7412308,8.31415385 17.3172308,8.516 C16.8935385,8.71815385 16.7135385,9.22584615 16.9166154,9.64984615 C17.9095385,11.7301538 17.4815385,14.2227692 15.8513846,15.8529231 C14.7507692,16.9535385 13.232,17.5070769 11.7049231,17.4283077 L12.8670769,16.3932308 C11.3283077,16.7384615 9.176,16.6858462 7.544,16.4544615 C8.63015385,17.6941538 9.85046154,19.4673846 10.4024615,20.9449231 L10.6923077,19.0153846 C11.1218462,19.0947692 11.5532308,19.148 11.984,19.148 C13.8609231,19.148 15.6993846,18.4104615 17.0538462,17.0556923 C19.1929231,14.9166154 19.7541538,11.6458462 18.4510769,8.91692308" id="Fill-1"></path>
                <path d="M8.14492308,8.14707692 C9.24523077,7.04646154 10.7646154,6.49261538 12.2916923,6.57169231 L11.1292308,7.60676923 C12.668,7.26123077 14.8203077,7.31415385 16.4526154,7.54553846 C15.3661538,6.30584615 14.1458462,4.53230769 13.5941538,3.05507692 L13.3036923,4.98615385 C11.004,4.56276923 8.60830769,5.27907692 6.94246154,6.94430769 C4.84307692,9.04369231 4.26061538,12.2689231 5.49261538,14.9686154 C5.63476923,15.2821538 5.94369231,15.4667692 6.26646154,15.4667692 C6.38430769,15.4667692 6.50461538,15.4424615 6.61846154,15.3898462 C7.04584615,15.1947692 7.23476923,14.6904615 7.03938462,14.2633846 C6.10092308,12.2052308 6.54492308,9.74738462 8.14492308,8.14707692" id="Fill-2"></path>
                <path d="M12.0003077,1.70092308 C6.32092308,1.70092308 1.70092308,6.32092308 1.70092308,12.0003077 C1.70092308,17.6790769 6.32092308,22.2993846 12.0003077,22.2993846 C17.6790769,22.2993846 22.2993846,17.6790769 22.2993846,12.0003077 C22.2993846,6.32092308 17.6790769,1.70092308 12.0003077,1.70092308 Z M12.0003077,24 C5.38307692,24 0,18.6169231 0,12.0003077 C0,5.38307692 5.38307692,0 12.0003077,0 C18.6169231,0 24,5.38307692 24,12.0003077 C24,18.6169231 18.6169231,24 12.0003077,24 L12.0003077,24 Z" id="Fill-3"></path>
            </g>
        </g>
    </g>
</svg>