<?xml version="1.0" encoding="UTF-8"?>
<svg width="24px" height="24px" viewBox="0 0 24 24" version="1.1" xmlns="http://www.w3.org/2000/svg" xmlns:xlink="http://www.w3.org/1999/xlink">
    <!-- Generator: Sketch 53.2 (72643) - https://sketchapp.com -->
    <title>ic_referrals_active</title>
    <desc>Created with Sketch.</desc>
    <g id="panel-assets" stroke="none" stroke-width="1" fill="none" fill-rule="evenodd">
        <g id="invitation-copy" transform="translate(3.000000, 3.000000)" fill="#333333" fill-rule="nonzero">
            <path d="M1.63956707,7.79698828 C1.54668902,7.72273828 1.50318699,7.61175 1.50318699,7.49998828 L1.49727846,7.49998828 L1.49727846,4.94922656 L0.420335366,5.86198828 C0.167512195,6.07647656 0.0230121951,6.39147656 0.0230121951,6.72598828 L0.0230121951,16.875 C0.0230121951,17.07075 0.0768109756,17.2514883 0.163054878,17.4120117 L6.3276626,12.5047617 L6.95863211,12.0030117 L1.63956707,7.79698828 Z" id="Path"></path>
            <path d="M16.5796646,5.86198828 L15.5027215,4.94922656 L15.5027215,7.49998828 L15.496813,7.49998828 C15.496813,7.61175 15.4540711,7.72273828 15.3604329,7.79625 L10.0435447,12.0007617 L11.4079675,13.0785117 L16.853876,17.3805117 C16.9297886,17.2275117 16.9769878,17.0580234 16.9769878,16.875 L16.9769878,6.72598828 C16.9769533,6.39151172 16.8324878,6.07651172 16.5796646,5.86198828 Z" id="Path"></path>
            <path d="M9.10298171,12.2077617 C8.7440122,11.9302734 8.25602236,11.9302734 7.8940813,12.2100117 L0.723294715,17.919 C0.848617886,17.9700117 0.984997967,18 1.1287378,18 L15.8712967,18 C16.0290305,18 16.1786789,17.9647383 16.3142988,17.9039883 L9.10298171,12.2077617 Z" id="Path"></path>
            <path d="M2.23442886,0 L2.23442886,7.317 L7.56900813,11.5350117 C8.14545325,11.1607734 8.8582439,11.1607734 9.43171748,11.5350117 L14.7655711,7.317 L14.7655711,0 L2.23442886,0 Z M10.7113821,6.00001172 L8.8685752,6.00001172 L8.8685752,7.875 C8.8685752,8.082 8.70344715,8.25001172 8.5,8.25001172 C8.29655285,8.25001172 8.1314248,8.082 8.1314248,7.875 L8.1314248,6.00001172 L6.28861789,6.00001172 C6.08517073,6.00001172 5.92004268,5.832 5.92004268,5.625 C5.92004268,5.418 6.08517073,5.24998828 6.28861789,5.24998828 L8.1314248,5.24998828 L8.1314248,3.375 C8.1314248,3.168 8.29655285,2.99998828 8.5,2.99998828 C8.70344715,2.99998828 8.8685752,3.168 8.8685752,3.375 L8.8685752,5.24998828 L10.7113821,5.24998828 C10.9148293,5.24998828 11.0799573,5.418 11.0799573,5.625 C11.0799573,5.832 10.9148293,6.00001172 10.7113821,6.00001172 Z" id="Shape"></path>
        </g>
    </g>
</svg>